<?xml version="1.0" standalone="no"?><!DOCTYPE svg PUBLIC "-//W3C//DTD SVG 1.1//EN" "http://www.w3.org/Graphics/SVG/1.1/DTD/svg11.dtd"><svg t="1722389114515" class="icon" viewBox="0 0 1024 1024" version="1.1" xmlns="http://www.w3.org/2000/svg" p-id="1831" xmlns:xlink="http://www.w3.org/1999/xlink" width="200" height="200"><path d="M801.087 967.96c5.46 13.108 18.447 21.725 32.646 21.603h0.243c9.345 0.122 18.326-3.52 25-10.316l119.786-119.785c6.675-6.675 10.559-15.656 10.559-25.122s-3.763-18.447-10.559-25.122L858.249 690.282l-0.122-0.121c-13.957-13.957-36.53-13.957-50.365 0s-13.957 36.53 0 50.365l61.53 61.531h-70.754c-72.94-0.12-142.844-29.127-194.424-80.827-51.457-51.7-80.342-121.606-80.342-194.545-0.243-190.419-154.616-344.67-344.913-345.035H69.268c-19.418 0-35.195 15.777-35.195 35.195s15.777 35.196 35.195 35.196h109.59c151.583 0.242 274.524 123.062 274.645 274.644 0.243 190.418 154.616 344.67 344.914 345.035h69.54l-59.71 57.89c-9.588 10.073-12.622 25.243-7.16 38.35zM422.92 736.28c-7.768-5.219-17.234-7.16-26.336-5.462-9.102 1.82-17.234 7.04-22.452 14.807-50.973 75.852-136.412 121.241-227.799 121.241H69.511c-19.418 0-35.196 15.777-35.196 35.196s15.778 35.195 35.196 35.195h76.822c114.81 0.364 222.216-56.555 286.538-151.704a35.43 35.43 0 0 0 5.34-26.578c-1.82-9.224-7.281-17.355-15.17-22.453l-0.121-0.242z" p-id="1832"></path><path d="M337.844 563.943c19.418 0 35.195-15.777 35.195-35.195s-15.777-35.195-35.195-35.195H69.632c-19.418 0-35.195 15.777-35.195 35.195s15.777 35.195 35.195 35.195h268.212z m241.634-210.2c11.53 0 22.452-5.583 29.006-15.17 51.215-74.639 135.926-119.3 226.463-119.3h39.686l-23.788 23.787-42.113 42.113c-10.073 10.073-13.107 25.243-7.524 38.472s18.447 21.724 32.647 21.602h0.242c9.345 0.122 18.326-3.52 25.001-10.316l119.785-119.663c6.675-6.675 10.559-15.656 10.559-25.123 0-9.466-3.762-18.447-10.559-25.122L858.37 45.966c-8.981-8.98-22.088-12.5-34.467-9.223s-21.846 12.864-25.244 25.243 0.243 25.365 9.224 34.346l53.4 53.035-33.011 0.607c-111.533 1.942-215.177 57.648-278.528 149.52-10.316 16.02-6.068 37.38 9.588 48.18 6.068 3.884 12.985 6.069 20.146 6.069z" p-id="1833"></path></svg>