<?xml version="1.0" standalone="no"?><!DOCTYPE svg PUBLIC "-//W3C//DTD SVG 1.1//EN" "http://www.w3.org/Graphics/SVG/1.1/DTD/svg11.dtd"><svg t="1735092232455" class="icon" viewBox="0 0 1024 1024" version="1.1" xmlns="http://www.w3.org/2000/svg" p-id="9255" xmlns:xlink="http://www.w3.org/1999/xlink" width="300" height="300"><path d="M300.633504 121.123914H98.526701v716.246199h302.276845V370.815112c0-21.934535 17.768945-38.930143 39.694576-38.930143h292.456227V121.123914h-202.110618a78.69722 78.69722 0 0 1 0.291273 8.483813v11.55045h69.230201c32.368225 0 53.488722 19.477155 62.47622 44.173063a80.089989 80.089989 0 0 1 5.087744 27.43057 80.930739 80.930739 0 0 1-5.087744 27.153288c-8.987499 24.998629-29.82181 44.198502-62.47622 44.198502H231.662778c-32.913886 0-53.748196-19.199873-62.476221-44.198502a69.370113 69.370113 0 0 1-5.066121-27.153288 68.959278 68.959278 0 0 1 5.066121-27.43057l0.571099-1.949878c8.988771-23.860246 29.536896-42.228273 61.905122-42.228273h68.68454v-11.545362c0-3.014488 0.286186-6.027704 0.286186-8.485085z m100.170042 793.625693H58.547211a38.720273 38.720273 0 0 1-39.096767-38.98102V81.86434c0-21.149751 17.425522-38.423912 39.096767-38.423912h283.443289c42.785381-34.851044 104.715941-34.851044 147.215136 0h283.416579c21.977781 0 39.97949 17.274162 39.97949 38.423912v277.729753l180.674683 176.440408a37.748514 37.748514 0 0 1 11.27444 26.898901v404.49852a39.017906 39.017906 0 0 1-39.407119 39.234135H440.498122a39.278653 39.278653 0 0 1-39.694576-39.234135v-52.683586z m524.386112-328.77127H767.556094c-13.228134 0-23.638929-10.156408-23.638929-23.048751V409.264463H479.931951v520.303198h445.257707V585.978337z m-39.97949-46.654609l-94.013873-90.550391v90.550391h94.013873z m-560.65155-351.817478h-92.89584c-8.988771 0-14.65143 5.496035-17.716796 12.083392l-0.597809 0.835662a42.543713 42.543713 0 0 0-1.662421 12.337778 46.425661 46.425661 0 0 0 1.662421 12.083391c3.117515 7.143192 8.754735 12.613789 18.315877 12.613789h368.699883a18.200131 18.200131 0 0 0 17.716795-12.613789 45.139734 45.139734 0 0 0 2.000755-12.083391 40.609098 40.609098 0 0 0-2.000755-12.337778c-2.492994-6.868454-8.702586-12.916509-17.716795-12.91651h-92.843691a23.832263 23.832263 0 0 1-23.951826-23.607131v-34.293936a65.367331 65.367331 0 0 0-19.69084-46.655882h-0.28237a68.870243 68.870243 0 0 0-95.701731 0c-12.105014 12.083391-20.002464 28.266232-20.002464 46.655882v34.295208a23.334937 23.334937 0 0 1-23.328577 23.607131z"  p-id="9256"></path></svg>