<?xml version="1.0" standalone="no"?><!DOCTYPE svg PUBLIC "-//W3C//DTD SVG 1.1//EN" "http://www.w3.org/Graphics/SVG/1.1/DTD/svg11.dtd"><svg t="1735092325804" class="icon" viewBox="0 0 1024 1024" version="1.1" xmlns="http://www.w3.org/2000/svg" p-id="11260" xmlns:xlink="http://www.w3.org/1999/xlink" width="300" height="300"><path d="M864 0H160a96 96 0 0 0-96 96v832a96 96 0 0 0 96 96h704a96 96 0 0 0 96-96V96a96 96 0 0 0-96-96z m32 912a48 48 0 0 1-48 48h-672A48 48 0 0 1 128 912v-800A48 48 0 0 1 176 64h672A48 48 0 0 1 896 112zM256 320h511.104c17.216 0 32.064-13.248 32.864-30.464L800 288a32 32 0 0 0-32-32H256.896c-17.216 0-32.064 13.248-32.864 30.464L224 288a32 32 0 0 0 32 32z m0 192h511.104c17.216 0 32.064-13.248 32.864-30.464L800 480a32 32 0 0 0-32-32H256.896c-17.216 0-32.064 13.248-32.864 30.464L224 480a32 32 0 0 0 32 32z m512 128H256.896c-17.216 0-32.064 13.248-32.864 30.464L224 672a32 32 0 0 0 32 32h511.104c17.216 0 32.064-13.248 32.864-30.464L800 672a32 32 0 0 0-32-32z" p-id="11261"></path></svg>