<?xml version="1.0" standalone="no"?><!DOCTYPE svg PUBLIC "-//W3C//DTD SVG 1.1//EN" "http://www.w3.org/Graphics/SVG/1.1/DTD/svg11.dtd"><svg t="1735092374415" class="icon" viewBox="0 0 1024 1024" version="1.1" xmlns="http://www.w3.org/2000/svg" p-id="12261" xmlns:xlink="http://www.w3.org/1999/xlink" width="300" height="300"><path d="M828.83 0H195.17C71.11 0 0 71.13 0 195.14v633.72C0 952.9 71.15 1024 195.17 1024h633.66c124.06 0 195.17-71.13 195.17-195.14V195.21C1024.07 71.13 952.89 0 828.83 0zM73.43 195.14c0.18-84 37.67-121.5 121.74-121.5h633.66c84.1 0 121.52 37.48 121.52 121.5v254.05h-209.9l-100.8 134.35-203.42-325.37-191 191H73.43zM950.5 828.86c-0.08 83.95-37.57 121.5-121.67 121.5l-633.66-0.07c-84.07 0-121.52-37.48-121.52-121.5V532.36h206.22L421.39 390.9l212.3 339.62 148.59-198.16H950.5z"  p-id="12262"></path></svg>