<svg xmlns:xlink="http://www.w3.org/1999/xlink" xmlns="http://www.w3.org/2000/svg" version="1.1" width="13px" height="13px">
  <g transform="matrix(1 0 0 1 -1140 -388 )">
    <path d="M 7 0  L 6 0  L 6 3.5  L 7 3.5  L 7 0  Z M 4.0251264572143555 4.732233047485352  L 4.732233047485352 4.0251264572143555  L 1.1966991424560547 0.4895923733711243  L 0.4895923733711243 1.1966991424560547  L 4.0251264572143555 4.732233047485352  Z M 8.974874496459961 4.732233047485352  L 8.267766952514648 4.0251264572143555  L 11.803300857543945 0.48959240317344666  L 12.510408401489258 1.1966991424560547  L 8.974874496459961 4.732233047485352  Z M 6.5 5.5  C 7.052285015583037 5.5  7.499999999999999 5.947715401649475  7.499999999999999 6.5  C 7.499999999999999 7.052285015583037  7.052285015583037 7.499999999999999  6.5 7.499999999999999  C 6.1298587918281555 7.499999999999999  5.806686967611313 7.298900604248046  5.633782386779785 7  C 5.633782386779785 7  0 7  0 7  L 0 6  C 0 6  5.633782386779785 6  5.633782386779785 6  C 5.806686967611313 5.701099395751953  6.1298587918281555 5.5  6.5 5.5  Z M 4.732233047485352 8.974874496459961  L 4.0251264572143555 8.267766952514648  L 0.4895923733711243 11.803300857543945  L 1.1966991424560547 12.510408401489258  L 4.732233047485352 8.974874496459961  Z M 8.267766952514648 8.974874496459961  L 8.974874496459961 8.267766952514648  L 12.510408401489258 11.803300857543945  L 11.803300857543945 12.510408401489258  L 8.267766952514648 8.974874496459961  Z M 13 7  L 13 6  L 9.5 6  L 9.5 7  L 13 7  Z M 7 13  L 6 13  L 6 9.5  L 7 9.5  L 7 13  Z " fill-rule="nonzero"  stroke="none" transform="matrix(1 0 0 1 1140 388 )"/>
  </g>
</svg>