<?xml version="1.0" standalone="no"?><!DOCTYPE svg PUBLIC "-//W3C//DTD SVG 1.1//EN" "http://www.w3.org/Graphics/SVG/1.1/DTD/svg11.dtd"><svg t="1735092442333" class="icon" viewBox="0 0 1024 1024" version="1.1" xmlns="http://www.w3.org/2000/svg" p-id="14342" xmlns:xlink="http://www.w3.org/1999/xlink" width="300" height="300"><path d="M1023.431522 356.438423v667.447862h-386.572793v-68.171904l319.879178 1.421432c0.170572 0-1.023431-335.742365-1.47829-592.737368h-295.60111V68.68362H295.71492v318.400889H227.543015v-386.629651h503.471405l290.711383 292.417102h1.705719v63.566463z m-292.417102-269.162465v205.596002h203.776569c-51.285286-49.750139-166.02332-166.080178-203.776569-205.596002z m-139.584675 936.610327H0.056952v-568.573015h591.372793v568.573015zM523.428412 523.826319h-454.858412v431.774347h454.858412V523.826319z m-386.857079 90.744253h90.971682l68.171905 90.914825 90.971682-90.914825h90.971683l-146.180122 133.557801 146.180122 139.300389h-90.971683l-94.098834-100.125708-87.787673 100.125708-86.479956-4.321155 143.792116-134.979234-125.540922-133.557801z"  p-id="14343"></path></svg>