<svg t="1709715664994" class="icon" viewBox="0 0 1024 1024" version="1.1" xmlns="http://www.w3.org/2000/svg" p-id="4415" width="200" height="200"><path d="M656.170667 42.666667a85.333333 85.333333 0 0 1 77.354666 121.301333l-59.52 128c-6.741333 14.549333-17.28 26.581333-30.122666 35.114667L780.8 757.333333a42.666667 42.666667 0 0 1-10.88 43.52l-4.096 3.456-222.293333 167.68a42.666667 42.666667 0 0 1-46.208 3.413334l-4.693334-3.029334-229.632-168.277333a42.666667 42.666667 0 0 1-16.810666-41.770667l1.28-5.248L380.714667 324.565333a85.248 85.248 0 0 1-26.24-31.829333l-61.013334-128A85.333333 85.333333 0 0 1 370.517333 42.666667h285.653334z m-70.698667 298.666666h-144.512L319.146667 750.506667a25.6 25.6 0 0 0 9.770666 28.202666l171.861334 121.258667a25.6 25.6 0 0 0 29.866666-0.256l165.290667-120.96a25.6 25.6 0 0 0 9.472-27.861333L585.472 341.333333z m187.861333 30.805334l90.325334 262.186666a32 32 0 1 1-60.544 20.864L712.832 392.96a32 32 0 0 1 60.501333-20.821333zM654.293333 106.666667H371.285333a25.6 25.6 0 0 0-24.405333 33.28l1.578667 3.84 60.373333 119.466666a25.6 25.6 0 0 0 18.773333 13.738667l4.053334 0.341333h164.394666a25.6 25.6 0 0 0 20.906667-10.794666l2.133333-3.584 58.24-119.466667a25.6 25.6 0 0 0-23.04-36.821333z"  p-id="4416"></path></svg>