<?xml version="1.0" standalone="no"?><!DOCTYPE svg PUBLIC "-//W3C//DTD SVG 1.1//EN" "http://www.w3.org/Graphics/SVG/1.1/DTD/svg11.dtd"><svg t="1735093089190" class="icon" viewBox="0 0 1024 1024" version="1.1" xmlns="http://www.w3.org/2000/svg" p-id="25018" xmlns:xlink="http://www.w3.org/1999/xlink" width="300" height="300"><path d="M738.89237938 992H285.10762062a87.65055187 87.65055187 0 0 1-85.0929675-89.995005V121.995005A87.62391094 87.62391094 0 0 1 285.10762062 32h453.78475875a87.65055187 87.65055187 0 0 1 85.09296751 89.995005v780.00999a87.67719375 87.67719375 0 0 1-85.0929675 89.995005z m28.08014625-870.004995a30.82422188 30.82422188 0 0 0-8.31214969-21.31320469 27.65388281 27.65388281 0 0 0-20.06105344-8.79169687h-85.0929675a54.8282175 54.8282175 0 0 1-53.04323719 54.90814312H423.1905425a54.85485938 54.85485938 0 0 1-53.04323719-54.90814312H285.08097875a29.30565562 29.30565562 0 0 0-28.37320312 29.998335v780.11655656a30.82422188 30.82422188 0 0 0 8.31214968 21.31320469 27.65388281 27.65388281 0 0 0 20.06105344 8.79169687h453.78475875a27.65388281 27.65388281 0 0 0 20.06105344-8.79169687 30.82422188 30.82422188 0 0 0 8.31214969-21.31320469l-0.29305594-780.00999zM597.10628844 872.00666H426.89371156a30.05161781 30.05161781 0 0 1 0-59.99666906h170.21257688a30.05161781 30.05161781 0 0 1 0 59.99666906z" p-id="25019"></path></svg>